<svg version="1.1" id="Layer_1" xmlns="http://www.w3.org/2000/svg" xmlns:xlink="http://www.w3.org/1999/xlink" x="0px" y="0px"
	 width="100%" viewBox="0 0 1024 1024" enable-background="new 0 0 1024 1024" xml:space="preserve">
<path fill="#15803d" opacity="1.000000" stroke="none" 
	d="
M425.372986,714.773132 
	C397.964539,710.251099 371.209290,704.892700 345.133301,696.472473 
	C301.945251,682.526550 261.371399,663.539612 226.685883,633.734375 
	C195.597229,607.020020 172.666626,574.970337 164.655869,533.794434 
	C157.057724,494.739532 165.950562,459.109924 187.391724,426.264954 
	C201.399811,404.806458 219.353516,387.071869 240.319122,372.376007 
	C241.646790,371.445404 242.882050,370.204498 245.008209,370.268311 
	C245.672424,373.236328 243.239212,374.732117 241.838745,376.480408 
	C230.888168,390.151062 220.192093,403.976624 212.326797,419.752014 
	C185.028824,474.503448 197.402725,533.770630 244.325394,573.052551 
	C269.188629,593.867126 297.958252,605.796082 329.931030,609.738281 
	C391.350830,617.311340 447.479401,602.992615 497.497375,566.643921 
	C526.468445,545.590271 545.770203,517.726135 551.235046,481.498169 
	C552.253784,474.745178 552.940674,467.951538 552.920898,461.111664 
	C552.847046,435.613708 552.979797,410.111755 552.536316,384.619965 
	C552.360229,374.496368 551.061523,364.373566 547.543518,354.701721 
	C544.435974,346.158386 539.024719,339.513275 530.790283,335.728333 
	C526.019104,333.535309 524.809814,330.016418 524.543274,325.043732 
	C532.762756,324.018188 540.873962,324.442841 548.965759,324.426605 
	C567.293701,324.389801 585.622131,324.427094 603.949463,324.302460 
	C613.486572,324.237610 620.920471,328.138062 626.902832,335.398682 
	C640.252991,351.601349 653.694885,367.728394 667.098877,383.886749 
	C707.947205,433.129211 748.795654,482.371643 789.641113,531.616516 
	C790.274963,532.380615 790.870911,533.176208 791.821899,534.386475 
	C794.852478,529.800476 793.968445,525.146301 794.236755,520.961121 
	C796.133179,491.382385 795.295715,462.065796 784.892273,433.749817 
	C773.609253,403.039886 754.148804,378.665894 727.755920,359.723267 
	C693.965820,335.471619 655.597229,322.123474 615.392517,313.368134 
	C585.077881,306.766602 554.383057,303.421509 523.383057,302.007141 
	C491.702637,300.561707 460.082062,301.207062 428.524994,303.585022 
	C399.321350,305.785614 370.356659,310.198578 341.593933,315.804993 
	C339.354492,316.241516 337.109467,316.967163 334.490906,316.323639 
	C334.874146,314.188660 336.636292,313.979858 338.025909,313.433777 
	C367.398895,301.890533 397.715454,293.687592 428.665680,287.663116 
	C460.123077,281.539917 491.923096,278.741760 523.901001,278.266876 
	C546.032288,277.938232 568.133118,279.059845 590.183289,281.519196 
	C618.855225,284.717133 647.115173,289.875397 674.887756,297.629639 
	C713.770447,308.485870 750.902710,323.475586 784.654785,345.915985 
	C815.686829,366.547943 841.960754,391.925842 857.624268,426.323914 
	C884.282043,484.865906 878.416199,540.592773 841.041382,592.931580 
	C826.665649,613.062927 808.544312,629.452759 789.050781,644.474182 
	C785.314880,647.352966 783.247925,647.240967 780.272339,643.340149 
	C735.805054,585.044067 691.191956,526.859253 646.595154,468.661957 
	C641.324463,461.783966 636.003784,454.942200 630.577393,448.187225 
	C629.328491,446.632568 628.362610,443.735718 625.729248,444.771454 
	C623.538269,445.633118 624.281616,448.273285 624.276855,450.189789 
	C624.241394,464.355988 624.296936,478.522339 624.297302,492.688660 
	C624.298706,544.187500 624.298828,595.686279 624.267212,647.185120 
	C624.264771,651.200623 624.521179,655.178406 625.253296,659.119812 
	C627.332581,670.315125 636.393921,678.547119 648.086914,679.613098 
	C669.381958,681.554504 689.854187,677.014221 710.127136,671.316223 
	C725.682861,666.943909 741.093323,662.106079 755.725525,655.106689 
	C756.629272,654.674438 757.574036,654.281311 758.783936,655.176575 
	C758.468994,657.604309 756.199280,658.313232 754.565125,659.456238 
	C729.980713,676.649780 702.583679,687.697021 674.092224,696.440796 
	C641.817078,706.345764 608.845642,712.985107 575.358643,716.686096 
	C544.875366,720.055176 514.234985,720.742249 483.547821,719.535645 
	C464.221405,718.775757 444.985291,717.264587 425.372986,714.773132 
M241.706421,619.758545 
	C272.736450,643.728088 307.567902,659.789978 345.389374,669.655762 
	C375.279755,677.452698 405.579468,681.137634 436.390045,677.547302 
	C469.549988,673.683228 500.119354,662.475098 527.409180,643.042419 
	C551.107483,626.167175 570.238831,605.139282 583.727905,579.215149 
	C585.778992,575.273193 587.828979,571.259216 588.329102,566.705566 
	C587.084900,567.333923 586.223572,568.108521 585.529480,569.011658 
	C584.313049,570.594360 583.157043,572.227661 582.048584,573.888367 
	C560.881287,605.602417 533.214172,629.604553 497.910339,644.397644 
	C455.620575,662.118042 411.568634,665.724365 366.523407,659.881348 
	C324.932312,654.486389 286.329895,640.714905 251.482620,617.114380 
	C226.738373,600.356140 205.868301,579.856750 191.396011,553.380005 
	C186.229019,543.927124 181.682999,534.200134 178.854095,523.784424 
	C186.684799,564.034302 209.653870,594.458191 241.706421,619.758545 
z"/>
<path fill="#15803d" opacity="1.000000" stroke="none" 
	d="
M532.574402,496.471985 
	C517.252075,530.496033 492.521423,555.061646 460.135468,572.150391 
	C433.991608,585.945496 405.895844,593.164001 376.545197,595.485413 
	C346.981873,597.823730 317.646759,597.053650 289.169403,587.358948 
	C278.870239,583.852783 269.166809,579.177612 260.013092,573.264587 
	C256.256470,570.837952 254.821198,567.955872 254.834885,563.409180 
	C255.000748,508.261292 254.970886,453.112762 254.981171,397.964417 
	C254.983459,385.607910 254.328186,373.368866 250.057175,361.549805 
	C246.098785,350.595886 239.448532,342.043945 229.174149,336.417328 
	C228.153488,335.858368 227.035965,335.396454 226.170563,334.649536 
	C223.943115,332.727051 223.382874,329.992889 223.855576,327.354645 
	C224.389282,324.375946 227.224716,325.142395 229.216949,325.138672 
	C277.034241,325.048950 324.859192,324.492188 372.666504,325.167816 
	C405.932556,325.637970 438.728943,330.307404 469.883850,342.971191 
	C495.843811,353.523376 518.076965,368.920898 531.935730,393.994873 
	C546.024902,419.485626 547.064209,446.634430 540.230713,474.438110 
	C538.398071,481.894775 535.748047,489.073303 532.574402,496.471985 
M318.220032,448.500153 
	C318.213196,454.829132 318.348480,461.162506 318.151276,467.485565 
	C318.011841,471.955017 319.787659,473.812531 324.317047,473.737976 
	C334.806915,473.565186 345.304230,473.808197 355.792419,473.590118 
	C359.862823,473.505463 361.423615,474.795410 361.348572,479.000793 
	C361.143524,490.488922 361.395721,501.984741 361.239655,513.474426 
	C361.183167,517.634949 362.586578,519.689087 366.948608,519.650696 
	C379.105865,519.543640 391.264557,519.548950 403.422455,519.581177 
	C407.912445,519.593018 410.027466,517.887573 409.913666,513.012634 
	C409.649414,501.693268 409.943939,490.361572 409.743805,479.039642 
	C409.670624,474.899445 411.132874,473.497955 415.270599,473.589264 
	C425.591522,473.816895 435.921417,473.717133 446.246765,473.633240 
	C452.324097,473.583832 453.586426,472.326935 453.627289,466.262848 
	C453.702454,455.104553 453.667114,443.945251 453.630371,432.786560 
	C453.609680,426.506195 452.654633,425.427124 446.460754,425.356415 
	C436.469452,425.242310 426.475952,425.295807 416.483490,425.322845 
	C410.464233,425.339111 409.984680,424.963287 409.946136,418.799469 
	C409.883698,408.806885 409.952362,398.813507 409.890503,388.820923 
	C409.852875,382.735992 408.670197,381.499268 402.555450,381.452209 
	C390.897644,381.362488 379.236755,381.533600 367.581207,381.345459 
	C362.764343,381.267700 361.139038,383.300995 361.230347,387.945679 
	C361.433197,398.267792 361.098236,408.602142 361.389343,418.920044 
	C361.522308,423.633728 360.120026,425.433441 355.210388,425.289551 
	C345.060059,424.992065 334.893890,425.177338 324.734955,425.257629 
	C318.871399,425.303955 318.244019,426.026672 318.223663,432.011261 
	C318.206085,437.174225 318.219360,442.337311 318.220032,448.500153 
z"/>
</svg>